<?xml version="1.0" encoding="utf-8"?>
<!-- Generator: Adobe Illustrator 24.2.1, SVG Export Plug-In . SVG Version: 6.00 Build 0)  -->
<svg version="1.1" id="Layer_1" xmlns="http://www.w3.org/2000/svg" xmlns:xlink="http://www.w3.org/1999/xlink" x="0px" y="0px"
	 viewBox="0 0 1024 1024" style="enable-background:new 0 0 1024 1024;" xml:space="preserve">
<style type="text/css">
	.st0{fill:#FFFFFF;}
</style>
<circle cx="512" cy="512" r="512"/>
<g>
	<path class="st0" d="M561.1,512c0,120.1-96.7,217.5-216,217.5S129,632.1,129,512s96.7-217.5,216-217.5S561.1,391.9,561.1,512
		 M798.1,512c0,113.1-48.4,204.8-108,204.8c-59.7,0-108-91.7-108-204.8s48.4-204.8,108-204.8C749.7,307.2,798.1,398.9,798.1,512
		 M895,512c0,101.3-17,183.5-38,183.5s-38-82.1-38-183.5s17-183.5,38-183.5S895,410.7,895,512"/>
</g>
</svg>
